<?xml version="1.0" encoding="UTF-8"?>
<svg id="Layer_1" data-name="Layer 1" xmlns="http://www.w3.org/2000/svg" viewBox="0 0 21.21 19.5">
  <defs>
    <style>
      .cls-1 {
        fill: #f2f1ed;
        fill-rule: evenodd;
      }
    </style>
  </defs>
  <path class="cls-1" d="M9.11,1.55V6.57c0,.8-.32,1.56-.88,2.12l-2.38,2.38c1.75-.12,3.51,.22,5.09,1.01,1.76,.88,3.8,1.11,5.71,.64l.28-.07-3.95-3.95c-.56-.56-.88-1.33-.88-2.12V1.55c-.5-.03-1-.05-1.5-.05s-1,.02-1.5,.05Zm4.5,.14c.37,0,.7-.28,.74-.66,.05-.41-.24-.79-.65-.84-.26-.03-.51-.06-.77-.08-.76-.07-1.54-.11-2.32-.11s-1.56,.04-2.32,.11c-.26,.02-.52,.05-.77,.08-.41,.05-.7,.43-.65,.84,.05,.38,.37,.66,.74,.66V6.57c0,.4-.16,.78-.44,1.06L.87,13.92c-1.62,1.62-.9,4.48,1.47,4.88,2.69,.46,5.45,.7,8.26,.7s5.58-.24,8.26-.7c2.37-.41,3.09-3.26,1.47-4.88l-6.29-6.29c-.28-.28-.44-.66-.44-1.06V1.69Z"/>
</svg>