<?xml version="1.0" encoding="UTF-8"?>
<svg id="Layer_1" data-name="Layer 1" xmlns="http://www.w3.org/2000/svg" viewBox="0 0 18 21">
  <defs>
    <style>
      .cls-1 {
        fill: #f2f1ed;
        fill-rule: evenodd;
      }
    </style>
  </defs>
  <path class="cls-1" d="M11.62,.09c.3,.17,.45,.52,.36,.85l-1.99,7.3h7.27c.3,0,.57,.18,.69,.45,.12,.27,.06,.59-.14,.81L7.3,20.76c-.24,.25-.61,.31-.91,.14-.3-.17-.45-.52-.36-.85l1.99-7.3H.75c-.3,0-.57-.18-.69-.45-.12-.27-.06-.59,.14-.81L10.7,.24c.24-.25,.61-.31,.91-.14Z"/>
</svg>