<?xml version="1.0" encoding="utf-8"?>
<!-- Generator: Adobe Illustrator 26.4.1, SVG Export Plug-In . SVG Version: 6.00 Build 0)  -->
<svg version="1.1" id="Layer_1" xmlns="http://www.w3.org/2000/svg" xmlns:xlink="http://www.w3.org/1999/xlink" x="0px" y="0px"
	 viewBox="0 0 22 18" style="enable-background:new 0 0 22 18;" xml:space="preserve">
<style type="text/css">
	.st0{fill:#F2F1ED;}
	.st1{fill-rule:evenodd;clip-rule:evenodd;fill:#F2F1ED;}
</style>
<path class="st0" d="M11,6C8.9,6,7.2,7.7,7.2,9.8c0,2.1,1.7,3.8,3.8,3.8c2.1,0,3.8-1.7,3.8-3.8C14.8,7.7,13.1,6,11,6z"/>
<path class="st1" d="M8.3,0.1C9.2,0,10.1,0,11,0s1.8,0,2.7,0.1c1,0.1,1.8,0.6,2.3,1.4l0.8,1.3c0.2,0.4,0.6,0.6,1.1,0.7
	c0.4,0.1,0.8,0.1,1.2,0.2c1.4,0.2,2.4,1.5,2.4,2.9V15c0,1.7-1.3,3-3,3h-15c-1.7,0-3-1.3-3-3V6.6c0-1.4,1-2.7,2.4-2.9
	c0.4-0.1,0.8-0.1,1.2-0.2C4.5,3.4,5,3.2,5.2,2.8L6,1.5C6.5,0.7,7.4,0.1,8.3,0.1z M5.8,9.8c0-2.9,2.4-5.2,5.2-5.2s5.2,2.4,5.2,5.2
	S13.9,15,11,15S5.8,12.6,5.8,9.8z M17.8,8.2c0.4,0,0.8-0.3,0.8-0.8s-0.3-0.8-0.8-0.8S17,7.1,17,7.5S17.3,8.2,17.8,8.2z"/>
</svg>
