<?xml version="1.0" encoding="utf-8"?>
<!-- Generator: Adobe Illustrator 26.4.1, SVG Export Plug-In . SVG Version: 6.00 Build 0)  -->
<svg version="1.1" id="Layer_1" xmlns="http://www.w3.org/2000/svg" xmlns:xlink="http://www.w3.org/1999/xlink" x="0px" y="0px"
	 viewBox="0 0 20 20" style="enable-background:new 0 0 20 20;" xml:space="preserve">
<style type="text/css">
	.st0{fill-rule:evenodd;clip-rule:evenodd;fill:#F2F1ED;}
</style>
<path class="st0" d="M9.1,0.2c-0.9,0-1.7,0.7-1.8,1.6L7,2.9C7,3,6.9,3.1,6.8,3.2c-0.3,0.2-0.7,0.4-1,0.6C5.6,3.9,5.4,3.9,5.3,3.9
	l-1-0.4C3.4,3.2,2.5,3.5,2,4.3L1.1,5.9C0.6,6.7,0.8,7.7,1.5,8.3L2.4,9c0.1,0.1,0.2,0.2,0.2,0.4c0,0.2,0,0.4,0,0.6c0,0.2,0,0.4,0,0.6
	c0,0.2-0.1,0.4-0.2,0.4l-0.8,0.7c-0.7,0.6-0.9,1.6-0.4,2.4L2,15.7c0.5,0.8,1.4,1.1,2.3,0.8l1-0.4c0.1,0,0.3,0,0.4,0.1
	c0.3,0.2,0.6,0.4,1,0.6C6.9,16.9,7,17,7,17.1l0.2,1.1c0.2,0.9,0.9,1.6,1.8,1.6h1.8c0.9,0,1.7-0.7,1.8-1.6l0.2-1.1
	c0-0.1,0.1-0.3,0.3-0.3c0.3-0.2,0.7-0.4,1-0.6c0.2-0.1,0.3-0.1,0.4-0.1l1,0.4c0.9,0.3,1.8,0,2.3-0.8l0.9-1.6
	c0.5-0.8,0.3-1.8-0.4-2.4L17.6,11c-0.1-0.1-0.2-0.2-0.2-0.4c0-0.2,0-0.4,0-0.6c0-0.2,0-0.4,0-0.6c0-0.2,0.1-0.4,0.2-0.4l0.8-0.7
	c0.7-0.6,0.9-1.6,0.4-2.4L18,4.3c-0.5-0.8-1.4-1.1-2.3-0.8l-1,0.4c-0.1,0-0.3,0-0.4-0.1c-0.3-0.2-0.6-0.4-1-0.6
	C13.1,3.1,13,3,12.9,2.9l-0.2-1.1c-0.2-0.9-0.9-1.6-1.8-1.6H9.1z M10,13.8c2.1,0,3.8-1.7,3.8-3.8c0-2.1-1.7-3.8-3.8-3.8
	c-2.1,0-3.8,1.7-3.8,3.8C6.2,12.1,7.9,13.8,10,13.8z"/>
</svg>
