<?xml version="1.0" encoding="UTF-8"?>
<svg id="Layer_1" data-name="Layer 1" xmlns="http://www.w3.org/2000/svg" viewBox="0 0 21 18">
  <defs>
    <style>
      .cls-1 {
        fill: #f2f1ed;
      }
    </style>
  </defs>
  <path class="cls-1" d="M14.23,1.5h1.03c.78,1.18,1.24,2.6,1.24,4.12s-.45,2.94-1.24,4.12h-.15c-.81,0-1.53,.45-2.03,1.08-.77,.99-1.75,1.81-2.86,2.4-.72,.38-1.35,.96-1.65,1.72-.21,.53-.32,1.1-.32,1.67v.63c0,.41-.34,.75-.75,.75-1.24,0-2.25-1.01-2.25-2.25,0-1.15,.26-2.24,.72-3.22,.27-.56-.11-1.28-.73-1.28H2.12c-1.03,0-1.95-.69-2.05-1.71-.04-.42-.07-.85-.07-1.29C0,5.4,.99,2.79,2.65,.73,3.04,.25,3.64,0,4.25,0h4.02c.48,0,.96,.08,1.42,.23l3.11,1.04c.46,.15,.94,.23,1.42,.23Z"/>
  <path class="cls-1" d="M20.17,10.02c.54-1.36,.83-2.85,.83-4.4,0-1.22-.18-2.4-.52-3.51-.26-.85-1.08-1.37-1.97-1.37h-.91c-.45,0-.72,.5-.52,.9,.59,1.2,.92,2.55,.92,3.98,0,1.71-.48,3.31-1.3,4.67-.25,.4,.03,.96,.5,.96h1.05c.83,0,1.61-.45,1.92-1.23Z"/>
</svg>