<?xml version="1.0" encoding="UTF-8"?>
<svg id="Layer_1" data-name="Layer 1" xmlns="http://www.w3.org/2000/svg" viewBox="0 0 19.5 18">
  <defs>
    <style>
      .cls-1 {
        fill: #f2f1ed;
      }
    </style>
  </defs>
  <path class="cls-1" d="M9.4,17.91h0s-.02-.02-.02-.02c-.02-.01-.05-.03-.08-.05-.07-.04-.17-.1-.3-.17-.26-.15-.62-.37-1.05-.66-.87-.58-2.03-1.42-3.19-2.51C2.44,12.36,0,9.18,0,5.25,0,2.32,2.46,0,5.44,0c1.75,0,3.31,.8,4.31,2.05,1-1.25,2.56-2.05,4.31-2.05,2.97,0,5.44,2.32,5.44,5.25,0,3.93-2.44,7.11-4.74,9.26-1.16,1.08-2.32,1.93-3.19,2.51-.43,.29-.8,.51-1.05,.66-.13,.08-.23,.13-.3,.17-.04,.02-.06,.03-.08,.05h-.02s0,.02,0,.02h0c-.22,.12-.48,.12-.7,0h0Z"/>
</svg>