<?xml version="1.0" encoding="utf-8"?>
<!-- Generator: Adobe Illustrator 26.4.1, SVG Export Plug-In . SVG Version: 6.00 Build 0)  -->
<svg version="1.1" id="Layer_1" xmlns="http://www.w3.org/2000/svg" xmlns:xlink="http://www.w3.org/1999/xlink" x="0px" y="0px"
	 viewBox="0 0 22 20" style="enable-background:new 0 0 22 20;" xml:space="preserve">
<style type="text/css">
	.st0{fill-rule:evenodd;clip-rule:evenodd;fill:#F2F1ED;}
</style>
<path class="st0" d="M3.8,0.8C6.2,0.4,8.6,0.2,11,0.2c2.4,0,4.8,0.2,7.2,0.5c2,0.3,3.3,2,3.3,4v6c0,1.9-1.4,3.7-3.3,4
	c-1.1,0.2-2.3,0.3-3.5,0.4c-0.1,0-0.2,0.1-0.3,0.2l-2.8,4.1c-0.1,0.2-0.4,0.3-0.6,0.3s-0.5-0.1-0.6-0.3l-2.8-4.1
	c-0.1-0.1-0.2-0.2-0.3-0.2C6.2,15,5,14.9,3.8,14.7c-2-0.3-3.3-2-3.3-4v-6C0.5,2.8,1.9,1.1,3.8,0.8z"/>
</svg>
