<?xml version="1.0" encoding="utf-8"?>
<!-- Generator: Adobe Illustrator 27.2.0, SVG Export Plug-In . SVG Version: 6.00 Build 0)  -->
<svg version="1.1" id="question" xmlns="http://www.w3.org/2000/svg" xmlns:xlink="http://www.w3.org/1999/xlink" x="0px" y="0px"
	 viewBox="0 0 16 24.1" style="enable-background:new 0 0 16 24.1;" xml:space="preserve">
<style type="text/css">
	.st0{fill:#F2F1ED;}
</style>
<path class="st0" d="M6.6,19c0,0.8,0.6,1.4,1.4,1.4s1.4-0.6,1.4-1.4c0-0.8-0.6-1.4-1.4-1.4S6.6,18.2,6.6,19C6.6,19,6.6,19,6.6,19z
	 M10.5,13.6c2-1.1,3-2.7,3-4.8c0-3.5-2.8-5.1-5.6-5.1s-5.6,2-5.6,5.6c0,0.8,0.6,1.4,1.4,1.4S5.2,10,5.2,9.3c0-1.9,1.4-2.8,2.8-2.8
	c1,0,2.8,0.3,2.8,2.3c0,0.7-0.2,1.6-1.6,2.3c-1,0.5-2.6,1.9-2.6,3.6c0,0.8,0.6,1.4,1.4,1.4s1.4-0.6,1.4-1.4
	C9.4,14.5,9.9,13.9,10.5,13.6z"/>
</svg>
